<svg width="80" height="80" viewBox="0 0 80 80" fill="none" xmlns="http://www.w3.org/2000/svg">
<path d="M50.3413 24.512L57.9253 40.6267C59.2874 43.5319 59.9956 46.7006 60 49.9093V72C59.9979 74.1211 59.1543 76.1547 57.6545 77.6545C56.1547 79.1544 54.1211 79.9979 52 80H30.6667C28.5456 79.9979 26.512 79.1544 25.0121 77.6545C23.5123 76.1547 22.6688 74.1211 22.6667 72V57.3333C22.6644 51.8351 24.6825 46.5277 28.3373 42.42C31.5573 38.7996 33.3353 34.1225 33.3333 29.2773V25.3333C33.3355 24.7374 33.4716 24.1495 33.7314 23.6132C33.9913 23.0768 34.3683 22.6057 34.8347 22.2347C34.7264 21.9464 34.6695 21.6413 34.6667 21.3333V17.3333C34.6681 16.8673 34.792 16.4099 35.026 16.0069C35.2601 15.6039 35.5959 15.2695 36 15.0373V14.6667C36.0018 14.2131 35.9571 13.7605 35.8667 13.316H35.8533C35.3693 13.3175 34.8948 13.4507 34.4807 13.7013C34.0666 13.9519 33.7285 14.3105 33.5027 14.7387C32.0053 17.7359 29.7784 20.3086 27.0267 22.22C26.4748 22.5642 25.8215 22.7082 25.1761 22.628C24.5307 22.5478 23.9325 22.2482 23.4817 21.7794C23.0309 21.3107 22.755 20.7012 22.7 20.0532C22.6451 19.4052 22.8145 18.758 23.18 18.22C25.2685 15.103 26.7943 11.644 27.688 8H22.6667C21.9594 8 21.2811 7.71905 20.781 7.21895C20.2809 6.71885 20 6.04058 20 5.33333V2.66667C20 1.95942 20.2809 1.28115 20.781 0.781049C21.2811 0.280952 21.9594 0 22.6667 0L49.7107 0C50.4147 0.00198003 51.1057 0.18935 51.7143 0.543255C52.3228 0.89716 52.8274 1.40511 53.1773 2.016L55.464 6.016C55.8111 6.62365 55.9927 7.31173 55.9907 8.01152C55.9887 8.71131 55.8031 9.39833 55.4525 10.004C55.1019 10.6096 54.5986 11.1127 53.9928 11.4629C53.3869 11.8132 52.6998 11.9984 52 12H49.3333C48.6261 12 47.9478 12.281 47.4477 12.781C46.9476 13.2811 46.6667 13.9594 46.6667 14.6667V15.0373C47.0707 15.2695 47.4066 15.6039 47.6406 16.0069C47.8747 16.4099 47.9986 16.8673 48 17.3333V21.3333C47.9972 21.5545 47.9667 21.7744 47.9093 21.988C48.972 22.5436 49.8255 23.4294 50.3413 24.512ZM25.3933 19.9347C25.488 20.0333 25.544 19.9987 25.5987 19.9653C27.9576 18.2988 29.8636 16.0702 31.144 13.4813C31.5092 12.7981 32.0189 12.2026 32.6376 11.7363C33.2564 11.27 33.9692 10.9442 34.7267 10.7813C33.6962 9.35586 32.1428 8.39694 30.4067 8.11467C29.4592 12.2651 27.7518 16.2043 25.3707 19.7333C25.3333 19.7787 25.2987 19.836 25.3933 19.9347ZM26.6667 2.66667H22.6667V5.33333H26.6667V2.66667ZM49.3333 9.33333H52C52.2343 9.3338 52.4645 9.27252 52.6676 9.15569C52.8706 9.03885 53.0393 8.87058 53.1567 8.66781C53.274 8.46504 53.3359 8.23493 53.336 8.00066C53.3361 7.76639 53.2745 7.53622 53.1573 7.33333L50.872 3.33333C50.7548 3.13025 50.586 2.96169 50.3828 2.84464C50.1796 2.72759 49.9492 2.6662 49.7147 2.66667H29.3333V5.33333C31.8077 5.33651 34.1798 6.32086 35.9295 8.07051C37.6791 9.82016 38.6635 12.1923 38.6667 14.6667H44C44 13.2522 44.5619 11.8956 45.5621 10.8954C46.5623 9.89524 47.9188 9.33333 49.3333 9.33333ZM45.3333 17.3333H37.3333V21.3333H45.3333V17.3333ZM45.3333 24H37.3333C36.9797 24 36.6406 24.1405 36.3905 24.3905C36.1405 24.6406 36 24.9797 36 25.3333V29.2773C36.0017 34.7759 33.9837 40.0835 30.3293 44.192C27.1091 47.8117 25.3311 52.4885 25.3333 57.3333V72C25.3333 73.4145 25.8952 74.771 26.8954 75.7712C27.8956 76.7714 29.2522 77.3333 30.6667 77.3333H52C53.4145 77.3333 54.771 76.7714 55.7712 75.7712C56.7714 74.771 57.3333 73.4145 57.3333 72V49.9093C57.3296 47.0928 56.7078 44.3114 55.512 41.7613L47.9293 25.6467C47.6961 25.1552 47.3285 24.7398 46.8692 24.4484C46.4098 24.157 45.8773 24.0016 45.3333 24Z" fill="#DFF4FF"/>
<path d="M49.332 73.3333H33.332C32.2712 73.3333 31.2537 72.9119 30.5036 72.1618C29.7535 71.4116 29.332 70.3942 29.332 69.3333V54.6667C29.3341 52.8992 30.0372 51.2047 31.287 49.955C32.5368 48.7052 34.2312 48.0021 35.9987 48H46.6654C48.4328 48.0021 50.1273 48.7052 51.3771 49.955C52.6269 51.2047 53.3299 52.8992 53.332 54.6667V69.3333C53.332 70.3942 52.9106 71.4116 52.1605 72.1618C51.4103 72.9119 50.3929 73.3333 49.332 73.3333ZM50.6654 54.6667C50.6654 53.6058 50.2439 52.5884 49.4938 51.8382C48.7436 51.0881 47.7262 50.6667 46.6654 50.6667H35.9987C34.9378 50.6667 33.9204 51.0881 33.1703 51.8382C32.4201 52.5884 31.9987 53.6058 31.9987 54.6667V69.3333C31.9987 69.687 32.1392 70.0261 32.3892 70.2761C32.6393 70.5262 32.9784 70.6667 33.332 70.6667H49.332C49.6857 70.6667 50.0248 70.5262 50.2748 70.2761C50.5249 70.0261 50.6654 69.687 50.6654 69.3333V54.6667Z" fill="#DFF4FF"/>
</svg>
