<svg width="129" height="114" viewBox="0 0 129 114" fill="none" xmlns="http://www.w3.org/2000/svg">
<path d="M99.7931 101.879H89.1445V52.0531H99.7931V70.8423H117.896V52.0531H129.001V101.879H117.896V80.5849H99.7931V101.879Z" fill="#DFF4FF"/>
<path d="M11.105 101.879V81.5593H32.5542V72.5126H11.105V61.2391H36.0531V52.0532H0V101.879H11.105Z" fill="#DFF4FF"/>
<path d="M63.0557 52.0532C84.3528 52.0532 86.2673 75.3794 70.5859 81.6284L83.1357 101.879H71.2705L59.3291 83.229H52.1787V101.879H41.0742V52.0532H63.0557ZM52.0273 74.1831H60.5459C66.7063 74.1831 69.2925 72.9302 69.5205 67.5718C69.7484 62.2131 64.9796 60.8218 60.5459 60.8218H52.0273V74.1831Z" fill="#DFF4FF"/>
<path d="M64.5761 15.5185L11.4853 48.1581H0V46.6947L64.084 6.81982L129 47.1123V48.1581H117.667L64.5761 15.5185Z" fill="#DFF4FF"/>
<path d="M128.62 105.776V114H0V105.776H128.62Z" fill="#DFF4FF"/>
<path d="M63.8432 33.0811H55.5234V25.47H63.8432V33.0811Z" fill="#DFF4FF"/>
<path d="M73.5971 33.0811H65.2773V25.47H73.5971V33.0811Z" fill="#DFF4FF"/>
<path d="M63.8432 43.0542H55.5234V35.4431H63.8432V43.0542Z" fill="#DFF4FF"/>
<path d="M73.5971 43.0542H65.2773V35.4431H73.5971V43.0542Z" fill="#DFF4FF"/>
<path d="M103.831 2.61753C103.672 2.37199 103.35 2.30634 103.082 2.46448C101.46 3.46256 97.5174 4.72939 97.5046 4.73349C83.4603 8.30072 89.0513 22.4292 89.0613 22.4546C95.8721 22.9428 102.303 21.4878 105.05 14.6436C107.189 9.22025 104.762 4.1938 103.831 2.61753ZM99.9311 11.1524C99.9118 11.1799 92.1153 16.5405 89.1763 22.3755C89.1587 21.8034 91.4181 14.4819 99.9311 11.1524Z" fill="#DFF4FF"/>
</svg>
