<svg width="80" height="80" viewBox="0 0 80 80" fill="none" xmlns="http://www.w3.org/2000/svg">
<path d="M11.2501 35C10.2612 35 9.29448 35.2932 8.47224 35.8427C7.64999 36.3921 7.00913 37.173 6.63069 38.0866C6.25225 39.0002 6.15324 40.0055 6.34616 40.9755C6.53909 41.9454 7.01529 42.8363 7.71456 43.5355C8.41382 44.2348 9.30473 44.711 10.2746 44.9039C11.2445 45.0969 12.2499 44.9978 13.1635 44.6194C14.0771 44.241 14.858 43.6001 15.4074 42.7779C15.9568 41.9556 16.2501 40.9889 16.2501 40C16.2486 38.6744 15.7213 37.4035 14.784 36.4661C13.8466 35.5288 12.5757 35.0015 11.2501 35ZM11.2501 42.5C10.7556 42.5 10.2723 42.3534 9.86116 42.0787C9.45004 41.804 9.12961 41.4135 8.94039 40.9567C8.75117 40.4999 8.70166 39.9972 8.79813 39.5123C8.89459 39.0273 9.13269 38.5819 9.48232 38.2322C9.83195 37.8826 10.2774 37.6445 10.7624 37.548C11.2473 37.4516 11.75 37.5011 12.2068 37.6903C12.6636 37.8795 13.0541 38.2 13.3288 38.6111C13.6035 39.0222 13.7501 39.5055 13.7501 40C13.7493 40.6628 13.4857 41.2983 13.017 41.7669C12.5484 42.2356 11.9129 42.4993 11.2501 42.5ZM0.366183 53.6455C0.207566 53.8041 0.0945508 54.0024 0.0389903 54.2198C-0.0165702 54.4371 -0.0126286 54.6654 0.0504018 54.8806L1.19946 58.8036L0.0504018 62.7266C-0.0126595 62.9419 -0.0166192 63.1701 0.0389382 63.3875C0.0944955 63.6048 0.207522 63.8032 0.366161 63.9619C0.5248 64.1205 0.723204 64.2335 0.940559 64.289C1.15791 64.3446 1.38621 64.3406 1.6015 64.2775L5.52431 63.1284L9.44712 64.2775C9.66242 64.3406 9.89074 64.3446 10.1081 64.289C10.3255 64.2335 10.5239 64.1205 10.6825 63.9618C10.8412 63.8032 10.9542 63.6048 11.0098 63.3874C11.0653 63.17 11.0613 62.9417 10.9982 62.7264L9.84915 58.8036L10.9982 54.8808C11.0613 54.6655 11.0652 54.4372 11.0097 54.2198C10.9541 54.0025 10.8411 53.8041 10.6825 53.6455C10.5238 53.4869 10.3254 53.3739 10.1081 53.3183C9.8907 53.2628 9.66241 53.2668 9.44712 53.3298L5.52431 54.4789L1.6015 53.3298C1.38621 53.2668 1.15792 53.2628 0.940572 53.3183C0.723221 53.3738 0.524821 53.4869 0.366183 53.6455ZM3.70165 58.4523L3.09228 56.3714L5.17306 56.9808C5.40259 57.0481 5.64665 57.0481 5.87618 56.9808L7.95696 56.3714L7.34759 58.4522C7.28039 58.6817 7.28039 58.9258 7.34759 59.1553L7.95696 61.2361L5.87618 60.6267C5.64662 60.5595 5.40262 60.5595 5.17306 60.6267L3.09228 61.2361L3.70165 59.1552C3.76877 58.9257 3.76872 58.6818 3.7015 58.4523H3.70165ZM55.0001 56.25H40.0001C39.6686 56.25 39.3506 56.3817 39.1162 56.6161C38.8818 56.8505 38.7501 57.1685 38.7501 57.5V66.5625C38.7519 68.1367 39.378 69.6459 40.4911 70.759C41.6042 71.8721 43.1134 72.4982 44.6876 72.5H50.3126C51.8868 72.4982 53.396 71.8721 54.5091 70.759C55.6222 69.6459 56.2483 68.1367 56.2501 66.5625V57.5C56.2501 57.1685 56.1184 56.8505 55.884 56.6161C55.6496 56.3817 55.3316 56.25 55.0001 56.25ZM53.7501 66.5625C53.7491 67.4739 53.3866 68.3476 52.7421 68.992C52.0977 69.6365 51.224 69.999 50.3126 70H44.6876C43.7762 69.999 42.9025 69.6365 42.2581 68.992C41.6136 68.3476 41.2511 67.4739 41.2501 66.5625V58.75H53.7501V66.5625ZM47.5001 53.75C48.9835 53.75 50.4335 53.3101 51.6669 52.486C52.9002 51.6619 53.8615 50.4906 54.4292 49.1201C54.9968 47.7497 55.1454 46.2417 54.856 44.7868C54.5666 43.332 53.8523 41.9956 52.8034 40.9467C51.7545 39.8978 50.4181 39.1835 48.9633 38.8941C47.5084 38.6047 46.0004 38.7532 44.63 39.3209C43.2595 39.8886 42.0882 40.8499 41.2641 42.0832C40.44 43.3166 40.0001 44.7666 40.0001 46.25C40.0023 48.2384 40.7932 50.1448 42.1993 51.5508C43.6053 52.9569 45.5117 53.7478 47.5001 53.75ZM47.5001 41.25C48.489 41.25 49.4557 41.5432 50.2779 42.0927C51.1002 42.6421 51.7411 43.423 52.1195 44.3366C52.4979 45.2502 52.5969 46.2555 52.404 47.2255C52.2111 48.1954 51.7349 49.0863 51.0356 49.7855C50.3364 50.4848 49.4454 50.961 48.4755 51.1539C47.5056 51.3469 46.5003 51.2478 45.5867 50.8694C44.673 50.491 43.8921 49.8501 43.3427 49.0279C42.7933 48.2056 42.5001 47.2389 42.5001 46.25C42.5016 44.9244 43.0288 43.6535 43.9662 42.7161C44.9036 41.7788 46.1745 41.2515 47.5001 41.25Z" fill="#DFF4FF"/>
<path d="M41.25 0C37.6045 0.00413552 34.1096 1.45412 31.5318 4.03185C28.9541 6.60958 27.5041 10.1045 27.5 13.75V19.8731L17.5859 68.2041L13.1492 73.75H3.75C3.41848 73.75 3.10054 73.8817 2.86612 74.1161C2.6317 74.3505 2.5 74.6685 2.5 75V78.75C2.5 79.0815 2.6317 79.3995 2.86612 79.6339C3.10054 79.8683 3.41848 80 3.75 80H27.5C27.8315 80 28.1495 79.8683 28.3839 79.6339C28.6183 79.3995 28.75 79.0815 28.75 78.75V75C28.75 74.6685 28.6183 74.3505 28.3839 74.1161C28.1495 73.8817 27.8315 73.75 27.5 73.75H25V68.8769L34.9745 20.2519C34.9911 20.1692 34.9993 20.0851 34.9989 20.0008H35V13.9881C35 10.4105 37.8038 7.5 41.25 7.5C44.6962 7.5 47.5 10.4105 47.5 13.9881V26.25H46.25C45.9185 26.25 45.6005 26.3817 45.3661 26.6161C45.1317 26.8505 45 27.1685 45 27.5V31.7981C41.7691 32.6918 38.92 34.6192 36.8883 37.2855C34.8566 39.9519 33.7543 43.2103 33.75 46.5625V74.0625C33.7518 75.6367 34.3779 77.1459 35.491 78.259C36.6041 79.3721 38.1133 79.9982 39.6875 80H70C74.1355 80 77.5 76.0747 77.5 71.25C77.5 66.9219 74.7923 63.3205 71.25 62.6239V46.5625C71.2453 42.7731 69.8378 39.1197 67.2987 36.3067C64.7597 33.4938 61.2691 31.7206 57.5 31.3291V27.5C57.5 27.1685 57.3683 26.8505 57.1339 26.6161C56.8995 26.3817 56.5815 26.25 56.25 26.25H55V13.75C54.9959 10.1045 53.5459 6.60958 50.9682 4.03185C48.3904 1.45412 44.8955 0.00413552 41.25 0ZM49.878 12.5H52.4289C52.4757 12.915 52.4994 13.3323 52.5 13.75V15H50V13.9881C49.9995 13.4896 49.9587 12.9919 49.878 12.5ZM50 17.5H52.5V20H50V17.5ZM51.855 10H49.0884C48.8425 9.49178 48.5496 9.00769 48.2134 8.55406L50.0344 6.73344C50.8194 7.71301 51.4348 8.81714 51.855 10ZM46.4602 6.77203C45.934 6.3703 45.3637 6.02993 44.7603 5.7575L46.6397 3.87812C47.2124 4.19292 47.7567 4.55683 48.2664 4.96578L46.4602 6.77203ZM30 16.25H32.5V18.75H30V16.25ZM30.5827 10.1842L33.0684 10.8056C32.7203 11.7495 32.5302 12.7443 32.5059 13.75H30C29.9999 12.5377 30.1967 11.3334 30.5827 10.1842ZM34.2998 8.53656L31.6592 7.87656C32.2136 6.97481 32.8915 6.15518 33.6733 5.44156L35.4753 7.24359C35.0424 7.63525 34.6487 8.0684 34.2998 8.53656ZM35.7242 3.95656C36.6703 3.42033 37.6897 3.02512 38.75 2.78344V5.37578C38.3542 5.4975 37.9678 5.64785 37.5938 5.82563L35.7242 3.95656ZM26.25 77.5H5V76.25H26.25V77.5ZM16.3508 73.75L19.3508 70H22.5V73.75H16.3508ZM22.7305 67.5H20.2825L29.7697 21.25H32.2177L22.7305 67.5ZM41.25 2.5C42.216 2.49974 43.1779 2.62415 44.112 2.87016L41.9508 5.03125C41.7187 5.0125 41.4861 5 41.25 5V2.5ZM50 22.5H52.5V26.25H50V22.5ZM47.5 28.75H55V31.25H49.0625C48.5407 31.2499 48.0192 31.2763 47.5 31.3291V28.75ZM36.25 74.0625V46.5625C36.2538 43.1656 37.605 39.9089 40.0069 37.5069C42.4089 35.105 45.6656 33.7538 49.0625 33.75H49.9553C54.8047 33.75 58.75 39.4977 58.75 46.5625V77.5H39.6875C38.7761 77.499 37.9024 77.1365 37.258 76.492C36.6135 75.8476 36.251 74.9739 36.25 74.0625ZM75 71.25C75 74.6962 72.757 77.5 70 77.5C67.243 77.5 65 74.6962 65 71.25C65 67.8038 67.243 65 70 65C72.757 65 75 67.8038 75 71.25ZM68.75 46.5625V62.6239C65.2077 63.3205 62.5 66.9223 62.5 71.25C62.5 73.6966 63.3663 75.9106 64.7583 77.5H61.25V46.5625C61.25 42.548 60.1225 38.7586 58.0752 35.8922C57.5229 35.1123 56.8861 34.3959 56.1764 33.7559C59.5309 33.8217 62.726 35.1994 65.0765 37.5935C67.427 39.9875 68.7458 43.2074 68.75 46.5625Z" fill="#DFF4FF"/>
<path d="M43.75 61.25H46.25V65H43.75V61.25ZM15 48.75H17.5V51.25H15V48.75ZM28.75 66.25H31.25V68.75H28.75V66.25ZM8.75 67.5H11.25V70H8.75V67.5ZM0 45.7812H2.5V48.2812H0V45.7812Z" fill="#DFF4FF"/>
</svg>
