<svg width="76" height="70" viewBox="0 0 76 70" fill="none" xmlns="http://www.w3.org/2000/svg">
<path d="M64.5338 18.4704H69.9997V23.8536H61.9297" stroke="#DFF4FF" stroke-miterlimit="10" stroke-linecap="round" stroke-linejoin="round"/>
<path d="M57.2657 23.8536H48.7773" stroke="#DFF4FF" stroke-miterlimit="10" stroke-linecap="round" stroke-linejoin="round"/>
<path d="M54.6617 18.4703H48.7773" stroke="#DFF4FF" stroke-miterlimit="10" stroke-linecap="round" stroke-linejoin="round"/>
<path d="M39.3771 23.8536H25.332" stroke="#DFF4FF" stroke-miterlimit="10" stroke-linecap="round" stroke-linejoin="round"/>
<path d="M39.3757 18.4703H24.1797" stroke="#DFF4FF" stroke-miterlimit="10" stroke-linecap="round" stroke-linejoin="round"/>
<path d="M18.0445 18.4704H5.76562V23.8536H19.1955" stroke="#DFF4FF" stroke-miterlimit="10" stroke-linecap="round" stroke-linejoin="round"/>
<path d="M47.1719 42.4456V34.9342" stroke="#DFF4FF" stroke-miterlimit="10" stroke-linecap="round" stroke-linejoin="round"/>
<path d="M40.8945 35.0676V42.4456" stroke="#DFF4FF" stroke-miterlimit="10" stroke-linecap="round" stroke-linejoin="round"/>
<path d="M49.6552 30.2608H38.7305C37.4469 30.2608 36.4062 31.2955 36.4062 32.5719C36.4062 33.8484 37.4469 34.8833 38.7305 34.8833H49.6552C50.9388 34.8833 51.9794 33.8484 51.9794 32.5719C51.9794 31.2955 50.9388 30.2608 49.6552 30.2608Z" stroke="#DFF4FF" stroke-width="2" stroke-miterlimit="10" stroke-linecap="round" stroke-linejoin="round"/>
<path d="M39.4922 30.2607V13.7316C39.4922 11.1504 41.5966 9.05784 44.1924 9.05784C46.7884 9.05784 48.8928 11.1504 48.8928 13.7316V30.2607" stroke="#DFF4FF" stroke-width="2" stroke-miterlimit="10" stroke-linecap="round" stroke-linejoin="round"/>
<path d="M75 35.8734V47.2068" stroke="#DFF4FF" stroke-width="2" stroke-miterlimit="10" stroke-linecap="round" stroke-linejoin="round"/>
<path d="M70.1172 42.3953V18.4195H74.0971C74.5959 18.4195 74.9994 18.8207 74.9994 19.3167V30.6916" stroke="#DFF4FF" stroke-width="2" stroke-miterlimit="10" stroke-linecap="round" stroke-linejoin="round"/>
<path d="M5.88281 42.3953V35.8735" stroke="#DFF4FF" stroke-width="2" stroke-miterlimit="10" stroke-linecap="round" stroke-linejoin="round"/>
<path d="M5.8825 30.6921V18.4192H1.90244C1.78394 18.4192 1.6666 18.4424 1.55711 18.4874C1.44763 18.5325 1.34814 18.5986 1.26434 18.6819C1.18053 18.7652 1.11406 18.8641 1.0687 18.9729C1.02334 19.0818 1 19.1985 1 19.3163V45.3247" stroke="#DFF4FF" stroke-width="2" stroke-miterlimit="10" stroke-linecap="round" stroke-linejoin="round"/>
<path d="M23.2862 42.3953L16.7305 11.7245" stroke="#DFF4FF" stroke-width="2" stroke-miterlimit="10" stroke-linecap="round" stroke-linejoin="round"/>
<path d="M29.4223 42.3953L22.6016 10.4838" stroke="#DFF4FF" stroke-width="2" stroke-miterlimit="10" stroke-linecap="round" stroke-linejoin="round"/>
<path d="M9.93699 6.30864L6.42461 7.05039C6.23849 7.09036 6.05535 6.97192 6.01515 6.78685L5.72332 5.4218C5.7131 5.37351 5.69338 5.3277 5.66529 5.28703C5.63719 5.24635 5.60129 5.2116 5.55963 5.18478C5.51797 5.15796 5.47139 5.13959 5.42257 5.13075C5.37375 5.1219 5.32365 5.12275 5.27515 5.13324L1.67343 5.89409C1.57578 5.91484 1.49038 5.97325 1.43596 6.05651C1.38153 6.13976 1.36252 6.24108 1.38309 6.33825L3.07005 14.228C3.09089 14.3255 3.14978 14.4109 3.2338 14.4652C3.31782 14.5196 3.4201 14.5387 3.51822 14.5182L7.11994 13.7557C7.32243 13.7128 7.45346 13.5144 7.41028 13.3116L7.11845 11.9465C7.07825 11.76 7.19736 11.5779 7.38348 11.5394L10.8959 10.7976" stroke="#DFF4FF" stroke-width="2" stroke-miterlimit="10" stroke-linecap="round" stroke-linejoin="round"/>
<path d="M14.8473 3.10959L10.3367 4.0629C10.1138 4.11002 9.91894 4.24322 9.79486 4.43322C9.67077 4.62321 9.62766 4.85444 9.67501 5.07603L11.1614 12.0291C11.1849 12.1388 11.2298 12.2428 11.2937 12.3353C11.3576 12.4277 11.4391 12.5067 11.5337 12.5678C11.6283 12.6289 11.7341 12.6708 11.845 12.6913C11.9559 12.7117 12.0698 12.7102 12.1801 12.6869L28.5925 9.21813C28.9361 9.14546 29.2941 9.18506 29.6132 9.33104C29.9324 9.47701 30.1956 9.72156 30.3637 10.0283L31.6829 12.4346C31.7921 12.6338 31.9765 12.7817 32.1954 12.8458C32.4143 12.9099 32.6498 12.8849 32.8502 12.7763L34.0095 12.2753C35.1921 11.6344 35.6591 10.3062 35.0144 9.13033L32.8871 5.25088C31.1513 2.08506 27.5304 0.429076 23.9833 1.17867L20.0587 2.00821" stroke="#DFF4FF" stroke-width="2" stroke-miterlimit="10" stroke-linecap="round" stroke-linejoin="round"/>
<path d="M62.0465 42.3953V23.7567C62.0465 23.3184 62.1865 22.8922 62.444 22.5383L64.262 20.0407C64.4719 19.7523 64.6076 19.4172 64.6571 19.0646C64.7067 18.7121 64.6687 18.3528 64.5464 18.0182L62.249 11.7437C62.1899 11.5813 62.0819 11.441 61.9396 11.3418C61.7973 11.2427 61.6278 11.1896 61.4541 11.1899H57.9743C57.8006 11.1898 57.6311 11.2429 57.4889 11.342C57.3467 11.4411 57.2386 11.5814 57.1793 11.7437L54.8818 18.0182C54.7595 18.3528 54.7216 18.7121 54.7711 19.0646C54.8207 19.4171 54.9563 19.7522 55.1662 20.0407L56.9841 22.5383C57.243 22.8924 57.3822 23.3189 57.3817 23.7567V42.3953" stroke="#DFF4FF" stroke-width="2" stroke-miterlimit="10" stroke-linecap="round" stroke-linejoin="round"/>
<path d="M74.9998 42.3945H1V67.9531C1 68.2308 1.11092 68.497 1.30836 68.6934C1.50581 68.8897 1.7736 69 2.05282 69H73.947C74.2262 69 74.494 68.8897 74.6914 68.6934C74.8889 68.497 74.9998 68.2308 74.9998 67.9531V42.3945Z" stroke="#DFF4FF" stroke-width="2" stroke-miterlimit="10" stroke-linecap="round" stroke-linejoin="round"/>
<path d="M29.793 50.0685V54.9543C29.793 55.1506 29.8714 55.3389 30.011 55.4778C30.1506 55.6166 30.34 55.6946 30.5374 55.6946H45.4656C45.663 55.6946 45.8524 55.6166 45.992 55.4778C46.1316 55.3389 46.2101 55.1506 46.2101 54.9543V50.0685C46.2101 49.8722 46.1316 49.6839 45.992 49.5451C45.8524 49.4063 45.663 49.3283 45.4656 49.3283H30.5374C30.34 49.3283 30.1506 49.4063 30.011 49.5451C29.8714 49.6839 29.793 49.8722 29.793 50.0685Z" stroke="#DFF4FF" stroke-width="2" stroke-miterlimit="10" stroke-linecap="round" stroke-linejoin="round"/>
</svg>
