<svg width="80" height="80" viewBox="0 0 80 80" fill="none" xmlns="http://www.w3.org/2000/svg">
<g clip-path="url(#clip0_714_34431)">
<mask id="mask0_714_34431" style="mask-type:luminance" maskUnits="userSpaceOnUse" x="0" y="0" width="80" height="80">
<path d="M79 79V1H1V79H79Z" fill="white" stroke="white" stroke-width="2"/>
</mask>
<g mask="url(#mask0_714_34431)">
<path d="M43.4217 29.2964L44.6429 28.0776L47.839 24.8887C49.4884 23.2431 49.4884 20.5478 47.839 18.9022C46.1898 17.2564 43.4886 17.2564 41.8392 18.9022L37.4219 23.3098" stroke="#DFF4FF" stroke-width="2" stroke-miterlimit="10" stroke-linecap="round" stroke-linejoin="round"/>
<path d="M63.9742 37.9826C62.53 36.5415 60.163 36.5415 58.7188 37.9826L53.1066 43.5867C51.6624 45.0278 51.6624 47.3851 53.1066 48.826C54.5508 50.2671 56.9135 50.2671 58.3578 48.826L63.9742 43.222C65.4186 41.7811 65.4186 39.4237 63.9742 37.9826Z" stroke="#DFF4FF" stroke-width="2" stroke-miterlimit="10" stroke-linecap="round" stroke-linejoin="round"/>
<path d="M53.2783 31.4355L53.8889 30.8263C55.489 29.1762 55.4714 26.5209 53.8398 24.8885C52.1906 23.2429 49.4892 23.2429 47.8398 24.8885L45.6289 27.0946" stroke="#DFF4FF" stroke-width="2" stroke-miterlimit="10" stroke-linecap="round" stroke-linejoin="round"/>
<path d="M52.6238 66.5011C52.5391 64.4862 52.9224 62.4492 53.7829 60.5858L34.3923 41.2338M56.6936 49.7824L60.6519 53.7317C65.3859 51.5613 71.203 52.4153 75.09 56.2936C78.1926 59.3892 79.365 63.7123 78.6028 67.7331C77.8047 71.9539 75.5761 68.7604 75.1212 68.3069L69.6784 62.8762C67.7752 60.977 64.7128 60.897 62.7114 62.6405C60.9639 64.6375 61.0442 67.6931 62.9475 69.5923L68.3903 75.0229C68.845 75.4765 72.0456 77.7004 67.8153 78.4965C63.7856 79.2571 59.4528 78.0873 56.3505 74.9917C55.4083 74.0494 54.6187 72.966 54.0102 71.7806M31.0759 24.2259L26.217 19.3734C28.3923 14.65 27.5364 8.84578 23.6493 4.96751C20.547 1.87189 16.2144 0.702054 12.1845 1.46268C7.95423 2.25877 11.1548 4.48267 11.6095 4.93626L17.0523 10.3669C18.9556 12.2661 19.0359 15.3217 17.2886 17.3186C15.287 19.0622 12.2247 18.982 10.3214 17.0829L4.87862 11.6523C4.42393 11.1986 2.19519 8.00516 1.39707 12.2261C0.635039 16.2469 1.80722 20.57 4.90987 23.6656C8.79689 27.5438 14.6139 28.3979 19.348 26.2274L24.492 31.3599" stroke="#DFF4FF" stroke-width="2" stroke-miterlimit="10" stroke-linecap="round" stroke-linejoin="round"/>
<path d="M22.5353 61.5464L29.2573 68.2535C30.296 69.2899 30.296 70.9844 29.2573 72.0208L23.2798 77.9851C22.2411 79.0214 20.5428 79.0214 19.5042 77.9851L2.99769 61.5154C1.9591 60.4789 1.9591 58.7844 2.99769 57.748L8.97533 51.7838C10.0139 50.7474 11.7122 50.7474 12.7509 51.7838L18.6617 57.6815" stroke="#DFF4FF" stroke-width="2" stroke-miterlimit="10" stroke-linecap="round" stroke-linejoin="round"/>
<path d="M29.2578 68.2534L37.219 60.3098C40.2012 57.3344 40.7806 57.9749 44.3021 58.4775C45.8801 58.7042 48.1312 57.8636 49.941 56.7517" stroke="#DFF4FF" stroke-width="2" stroke-miterlimit="10" stroke-linecap="round" stroke-linejoin="round"/>
<path d="M58.7181 31.9961C57.0687 30.3505 54.3675 30.3505 52.7183 31.9961L48.3184 36.3859C46.6647 38.0361 46.6647 40.7269 48.3184 42.3725C49.9678 44.0226 52.669 44.0226 54.3184 42.3725L58.7181 37.9827C60.3718 36.337 60.3718 33.6417 58.7181 31.9961Z" stroke="#DFF4FF" stroke-width="2" stroke-miterlimit="10" stroke-linecap="round" stroke-linejoin="round"/>
<path d="M48.8608 35.8478C48.9813 34.6781 47.0466 32.9123 45.0585 30.9286L36.3173 22.2067C35.4346 21.3261 33.9813 21.3261 33.0945 22.2112L25.8775 29.412C24.2372 31.0487 23.5015 33.455 23.6309 35.6165C23.8315 38.9256 22.289 42.2702 17.7156 46.8291L12.75 51.7838M34.3693 32.2362C34.4449 32.3162 37.4004 35.2607 37.4762 35.3364C39.8163 37.5957 44.5369 39.5437 47.5815 37.3734" stroke="#DFF4FF" stroke-width="2" stroke-miterlimit="10" stroke-linecap="round" stroke-linejoin="round"/>
<path d="M34.3709 32.2362C36.9784 34.8381 36.2564 39.7751 32.7617 43.262" stroke="#DFF4FF" stroke-width="2" stroke-miterlimit="10" stroke-linecap="round" stroke-linejoin="round"/>
</g>
</g>
<defs>
<clipPath id="clip0_714_34431">
<rect width="80" height="80" fill="white"/>
</clipPath>
</defs>
</svg>
