<svg width="129" height="57" viewBox="0 0 129 57" fill="none" xmlns="http://www.w3.org/2000/svg">
<path d="M67.5566 57H71.4746V42.4428L77.5577 57H79.0012L84.9812 42.4428V57H88.6929V35H84.1563L78.2794 48.791L72.1963 35H67.5566V57Z" fill="#0D327D"/>
<path d="M108 57V53.26H97.4316V47.76H108V44.02H97.4316V38.74H108V35H93.7734V57H108Z" fill="#0D327D"/>
<path fill-rule="evenodd" clip-rule="evenodd" d="M52.3669 56.9988C46.6148 57.0906 41.923 52.0517 41.9493 45.9474C41.9751 39.9907 46.3503 35.1484 51.9624 35.0032C57.7122 34.8545 62.447 39.8445 62.4756 45.9474C62.5038 51.9619 58.0343 56.9083 52.3669 56.9988ZM45.4911 45.9474C45.3837 50.0652 48.4866 53.6899 52.3669 53.5654C56.1397 53.4444 58.9523 49.9509 58.8382 45.9474C58.7243 41.9493 55.7303 38.6375 51.9624 38.7587C48.3053 38.8763 45.5922 42.0665 45.4911 45.9474Z" fill="#0D327D"/>
<path d="M33.0069 57H36.6651V35H33.0069V44.0588H23.6582V35H20V57H23.6582V48.1569H33.0069V57Z" fill="#22A5FC"/>
<path fill-rule="evenodd" clip-rule="evenodd" d="M39.0074 0H24.7441V32H29.7782V20.0574H33.6936L41.9439 32H48.3763L39.7065 20.0574C45.019 19.7268 48.0054 15.2452 47.9568 9.95215C47.9068 4.49812 45.2757 1.13363 39.0074 0ZM29.7782 4.89952V14.8517H38.3082C40.8252 14.8517 42.8626 12.0075 42.5033 9.1866C42.1937 6.75641 40.5456 4.89914 38.3082 4.89952C36.0708 4.8999 29.7782 4.89952 29.7782 4.89952Z" fill="#0D327D"/>
<path d="M19.8566 0V5.75115H5.49226V13.5668H19.8566V19.023H5.49226V32H0V0H19.8566Z" fill="#22A5FC"/>
<path d="M79 24.555L83.396 22.1164C84.8264 24.8391 85.806 25.8684 88.1917 26.5634C89.7995 27.0317 90.8693 26.9701 92.4546 26.4199C93.7878 25.9572 94.8997 25.7648 95.5185 24.4116C96.0705 23.2044 95.9607 22.1633 95.3853 20.9688C94.767 19.6855 93.8011 19.436 92.5878 18.8171C91.0018 18.0081 89.8762 18.3433 88.1917 17.813C86.263 17.2057 84.9778 17.1393 83.396 15.8047C81.8394 14.4912 80.9618 13.419 80.4653 11.3577C80.0335 9.56499 80.18 8.37807 80.7318 6.62391C81.433 4.3948 82.4028 3.23656 84.1953 1.89008C86.1121 0.450333 87.5891 0.1425 89.9235 0.0252415C92.1453 -0.0863605 93.507 0.150449 95.5185 1.17284C97.7845 2.32462 100.314 5.76321 100.314 5.76321L96.1845 8.6322C96.5095 8.37446 93.5991 5.5834 91.3888 5.33287C88.728 5.03126 85.5275 5.33287 85.261 8.6322C84.9946 11.9315 91.9217 13.5095 91.9217 13.5095C91.9217 13.5095 95.7111 13.9781 97.5167 15.5178C99.4895 17.2001 100.39 18.8553 100.714 21.5426C100.987 23.8088 100.727 25.3126 99.6481 27.2806C98.1959 29.93 96.2835 30.8023 93.5203 31.5841C91.507 32.1537 90.2482 32.0746 88.1917 31.7275C85.7674 31.3183 84.3414 30.8032 82.3303 29.2889C80.5808 27.9715 79 24.555 79 24.555Z" fill="#0D327D"/>
<path d="M74.0433 32V26.3704H59.0177V18.963H73.4763V13.3333H59.0177V5.62963H74.0433V0H53.3477V32H74.0433Z" fill="#0D327D"/>
<path d="M123.686 19.1402H111.101V32H105.787V0H111.241L111.101 13.4579H123.686V0H129V32H123.686V19.1402Z" fill="#0D327D"/>
</svg>
